<?xml version="1.0" ?><!DOCTYPE svg  PUBLIC '-//W3C//DTD SVG 1.1//EN'  'http://www.w3.org/Graphics/SVG/1.1/DTD/svg11.dtd'><svg enable-background="new 0 0 512 512" height="60px" id="Layer_1" version="1.1" viewBox="0 0 512 512" width="60px" xml:space="preserve" xmlns="http://www.w3.org/2000/svg" xmlns:xlink="http://www.w3.org/1999/xlink"><g><g><path d="M421.459,246.576c0,98.547-79.883,178.43-178.428,178.43c-98.541,0-178.424-79.883-178.424-178.43    c0-98.539,79.883-178.428,178.424-178.428C341.576,68.148,421.459,148.037,421.459,246.576z" fill="#F4BC21"/></g><g><path d="M353.883,201.25c-3.721-11.473-35.898-32.49-102.494-33.016c-7.145-0.164-8.986,0.037-16.592,0.051    c-53.46-0.68-96.292,22.303-101.85,32.965c-3.548,6.793-0.461,30.861-0.461,30.861c0,0.006,2.865,6.1,2.865,6.1    c0.672,1.426,1.961,2.402,3.5,2.832l52.426-24.646c0.655-1.465,0.731-3.074,0.059-4.498l-4.263-9.072    c-0.054-0.104-0.119-0.195-0.179-0.297c0.292-6.553,12.135-8.973,16.272-9.232c-4.149-1.014,0.655,0.041,0.601-0.031    c-0.173,0.004-0.384,0.016-0.601,0.031c0.233,0.057,0.481,0.113,0.774,0.184c5.488,1.318,7.21,8.797,4.112,16.023    c-5.201,12.123-33.774,26.846-25.118,61.486c8.661,34.643-23.402,25.119-23.402,48.357c0.412,5.346,6.014,5.639,6.014,5.639    h152.275c0,0,7.069-0.881,7.166-5.639c-0.097-17.629-32.068-13.715-23.4-48.357c8.656-34.641-19.924-49.363-25.119-61.486    c-2.93-6.846-1.191-12.492,4.762-15.807c0.304-0.17,0.553-0.307,0.796-0.445c-0.151,0-0.292-0.002-0.454-0.006    c-0.098,0.148,5.031-2.557,0.454,0.006c4.015,0.047,6.685,0.102,7.335,0.166c4.609,0.461,12.952,2.529,10.189,17.047    c0.055,0.027,0.152,0.063,0.228,0.09l-1.24,5.027c-0.374,1.502-0.027,3.029,0.823,4.291l52.284,13.039    c1.344-0.719,2.356-1.904,2.726-3.406C354.371,229.506,355.67,206.752,353.883,201.25z M277.758,258.348    c0,16.014-15.291,28.994-34.148,28.994c-18.861,0-34.153-12.98-34.153-28.994c0-16.012,15.292-28.992,34.153-28.992    C262.467,229.355,277.758,242.336,277.758,258.348z" fill="#2E4B97"/></g></g></svg>